<svg width="35" height="34" viewBox="0 0 35 34" fill="none" xmlns="http://www.w3.org/2000/svg">
<path fill-rule="evenodd" clip-rule="evenodd" d="M22.52 2H12.52C6.99717 2 2.52002 6.47715 2.52002 12V22C2.52002 27.5228 6.99717 32 12.52 32H22.52C28.0429 32 32.52 27.5228 32.52 22V12C32.52 6.47715 28.0429 2 22.52 2ZM12.52 0C5.8926 0 0.52002 5.37258 0.52002 12V22C0.52002 28.6274 5.8926 34 12.52 34H22.52C29.1474 34 34.52 28.6274 34.52 22V12C34.52 5.37258 29.1474 0 22.52 0H12.52ZM17.52 21.84C20.1931 21.84 22.36 19.6731 22.36 17C22.36 14.3269 20.1931 12.16 17.52 12.16C14.847 12.16 12.68 14.3269 12.68 17C12.68 19.6731 14.847 21.84 17.52 21.84ZM17.52 25.84C22.4022 25.84 26.36 21.8822 26.36 17C26.36 12.1178 22.4022 8.16 17.52 8.16C12.6378 8.16 8.68002 12.1178 8.68002 17C8.68002 21.8822 12.6378 25.84 17.52 25.84ZM28.06 8.16C28.9989 8.16 29.76 7.39889 29.76 6.46C29.76 5.52112 28.9989 4.76 28.06 4.76C27.1211 4.76 26.36 5.52112 26.36 6.46C26.36 7.39889 27.1211 8.16 28.06 8.16Z" fill="#FFFFFF"/>
</svg>
