<svg width="34" height="34" viewBox="0 0 34 34" fill="none" xmlns="http://www.w3.org/2000/svg">
<path fill-rule="evenodd" clip-rule="evenodd" d="M12 2H22C27.5228 2 32 6.47715 32 12V22C32 27.5228 27.5228 32 22 32H12C6.47715 32 2 27.5228 2 22V12C2 6.47715 6.47715 2 12 2ZM0 12C0 5.37258 5.37258 0 12 0H22C28.6274 0 34 5.37258 34 12V22C34 28.6274 28.6274 34 22 34H12C5.37258 34 0 28.6274 0 22V12ZM27.8356 11.013L27.9686 9.01747L23.9775 8.7514L23.8444 10.747C23.7376 12.3502 22.8618 13.2533 21.5042 13.8531C20.723 14.1983 19.8421 14.4055 19 14.5233V10.88V8.88H15V10.88V16.66V20.3331C14.0409 20.1519 13.0595 19.7588 12.2149 19.0437C10.8509 17.8888 9.48001 15.5834 9.48001 10.88V8.88H5.48001V10.88C5.48001 16.3766 7.11243 19.9646 9.63013 22.0964C12.0943 24.1828 15.0519 24.5699 17.1288 24.4359L19 24.3151V22.44V18.8259C19.7607 18.9645 20.6182 19.1952 21.414 19.5496C23.0496 20.2778 23.84 21.2223 23.84 22.44V24.44H27.84V22.44C27.84 19.6894 26.3007 17.8674 24.5611 16.7222C26.2631 15.578 27.6523 13.7622 27.8356 11.013Z" fill="#FFFFFF"/>
</svg>
